# Blender 3.4.1
# www.blender.org
mtllib Grass.mtl
o Grass.Merged
v -7.000000 1.000000 9.000000
v -7.000000 -1.000000 -9.000000
v -7.000000 -1.000000 9.000000
v -7.000000 1.000000 -9.000000
v 11.000000 1.000000 9.000000
v 11.000000 -1.000000 -9.000000
v 11.000000 -1.000000 9.000000
v 11.000000 1.000000 -9.000000
vn -1.0000 -0.0000 -0.0000
vn 1.0000 -0.0000 -0.0000
vn -0.0000 -1.0000 -0.0000
vn -0.0000 1.0000 -0.0000
vn -0.0000 -0.0000 1.0000
vn -0.0000 -0.0000 -1.0000
vt 0.374978 0.625022
vt 0.468765 0.781305
vt 0.406226 0.906221
vt 0.374978 0.906206
vt 0.312471 0.937512
vt 0.406238 0.625029
vt 0.374978 0.625022
vt 0.499985 0.781277
vt 0.374978 0.906206
vt 0.312456 0.937478
vt 0.312442 0.968738
vt 0.468762 0.625058
vt 0.093794 0.625022
vt 0.031272 0.656294
vt 0.468765 0.874973
vt 0.499976 0.906221
vt 0.031279 0.937524
vt 0.499988 0.625029
vt 0.093794 0.625022
vt 0.031272 0.656294
vt 0.499970 0.874973
vt 0.468762 0.906221
vt 0.031272 0.937478
vt 0.031279 0.968738
s 0
usemtl lambert0.005
f 1/1/1 2/3/1 3/6/1
f 1/1/1 4/9/1 2/3/1
f 6/16/2 5/12/2 7/18/2
f 8/22/2 5/12/2 6/16/2
f 2/4/3 7/19/3 3/7/3
f 6/17/3 7/20/3 2/5/3
f 5/13/4 4/9/4 1/1/4
f 5/14/4 8/23/4 4/10/4
f 7/21/5 1/2/5 3/8/5
f 7/21/5 5/15/5 1/2/5
f 4/11/6 6/17/6 2/5/6
f 8/24/6 6/17/6 4/11/6
