# MagicaVoxel @ Ephtracy

# group
o 

# material
mtllib Flashligth.mtl
usemtl palette

# normals
vn -1 0 0
vn 1 0 0
vn 0 0 1
vn 0 0 -1
vn 0 -1 0
vn 0 1 0

# texcoords
vt 0.939453 0.5
vt 0.943359 0.5
vt 0.970703 0.5
vt 0.974609 0.5
vt 0.978516 0.5
vt 0.982422 0.5
vt 0.986328 0.5
vt 0.994141 0.5

# verts
v -0.8 0 -0.5
v -0.8 0 -0.8
v -0.8 0.1 -0.4
v -0.8 0.1 -0.5
v -0.8 0.1 -0.8
v -0.8 0.1 -0.9
v -0.8 0.2 -0.3
v -0.8 0.2 -0.4
v -0.8 0.2 -0.5
v -0.8 0.2 -0.8
v -0.8 0.2 -0.9
v -0.8 0.2 -1
v -0.8 0.5 -0.3
v -0.8 0.5 -0.4
v -0.8 0.5 -0.5
v -0.8 0.5 -0.8
v -0.8 0.5 -0.9
v -0.8 0.5 -1
v -0.8 0.6 -0.4
v -0.8 0.6 -0.5
v -0.8 0.6 -0.8
v -0.8 0.6 -0.9
v -0.8 0.7 -0.5
v -0.8 0.7 -0.8
v -0.7 0.1 -0.5
v -0.7 0.1 -0.7
v -0.7 0.1 -0.8
v -0.7 0.2 -0.4
v -0.7 0.2 -0.5
v -0.7 0.2 -0.6
v -0.7 0.2 -0.7
v -0.7 0.2 -0.8
v -0.7 0.2 -0.9
v -0.7 0.3 -0.4
v -0.7 0.3 -0.5
v -0.7 0.3 -0.6
v -0.7 0.3 -0.7
v -0.7 0.3 -0.8
v -0.7 0.3 -0.9
v -0.7 0.4 -0.5
v -0.7 0.4 -0.6
v -0.7 0.4 -0.7
v -0.7 0.4 -0.8
v -0.7 0.5 -0.4
v -0.7 0.5 -0.5
v -0.7 0.5 -0.6
v -0.7 0.5 -0.7
v -0.7 0.5 -0.8
v -0.7 0.5 -0.9
v -0.7 0.6 -0.5
v -0.7 0.6 -0.7
v -0.7 0.6 -0.8
v -0.3 0 -0.5
v -0.3 0 -0.8
v -0.3 0.1 -0.4
v -0.3 0.1 -0.5
v -0.3 0.1 -0.8
v -0.3 0.1 -0.9
v -0.3 0.2 -0.3
v -0.3 0.2 -0.4
v -0.3 0.2 -0.5
v -0.3 0.2 -0.8
v -0.3 0.2 -0.9
v -0.3 0.2 -1
v -0.3 0.5 -0.3
v -0.3 0.5 -0.4
v -0.3 0.5 -0.5
v -0.3 0.5 -0.8
v -0.3 0.5 -0.9
v -0.3 0.5 -1
v -0.3 0.6 -0.4
v -0.3 0.6 -0.5
v -0.3 0.6 -0.8
v -0.3 0.6 -0.9
v -0.3 0.7 -0.5
v -0.3 0.7 -0.8
v 0.5 0.1 -0.5
v 0.5 0.1 -0.8
v 0.5 0.2 -0.4
v 0.5 0.2 -0.5
v 0.5 0.2 -0.8
v 0.5 0.2 -0.9
v 0.5 0.5 -0.4
v 0.5 0.5 -0.5
v 0.5 0.5 -0.8
v 0.5 0.5 -0.9
v 0.5 0.6 -0.5
v 0.5 0.6 -0.8
v 0.6 0.2 -0.5
v 0.6 0.2 -0.8
v 0.6 0.3 -0.6
v 0.6 0.3 -0.7
v 0.6 0.4 -0.6
v 0.6 0.4 -0.7
v 0.6 0.5 -0.5
v 0.6 0.5 -0.8
v -0.8 0.2 -0.3
v -0.8 0.5 -0.3
v -0.6 0.2 -0.3
v -0.6 0.5 -0.3
v -0.3 0.2 -0.3
v -0.3 0.5 -0.3
v -0.8 0.1 -0.4
v -0.8 0.2 -0.4
v -0.8 0.5 -0.4
v -0.8 0.6 -0.4
v -0.6 0.1 -0.4
v -0.6 0.2 -0.4
v -0.6 0.5 -0.4
v -0.6 0.6 -0.4
v -0.3 0.1 -0.4
v -0.3 0.2 -0.4
v -0.3 0.5 -0.4
v -0.3 0.6 -0.4
v 0.5 0.2 -0.4
v 0.5 0.5 -0.4
v -0.8 0 -0.5
v -0.8 0.1 -0.5
v -0.8 0.6 -0.5
v -0.8 0.7 -0.5
v -0.6 0 -0.5
v -0.6 0.1 -0.5
v -0.6 0.6 -0.5
v -0.6 0.7 -0.5
v -0.3 0 -0.5
v -0.3 0.1 -0.5
v -0.3 0.2 -0.5
v -0.3 0.5 -0.5
v -0.3 0.6 -0.5
v -0.3 0.7 -0.5
v 0.5 0.1 -0.5
v 0.5 0.2 -0.5
v 0.5 0.5 -0.5
v 0.5 0.6 -0.5
v 0.6 0.2 -0.5
v 0.6 0.5 -0.5
v -0.8 0.1 -0.8
v -0.8 0.2 -0.8
v -0.8 0.5 -0.8
v -0.8 0.6 -0.8
v -0.7 0.1 -0.8
v -0.7 0.2 -0.8
v -0.7 0.5 -0.8
v -0.7 0.6 -0.8
v -0.8 0.2 -0.9
v -0.8 0.5 -0.9
v -0.7 0.2 -0.9
v -0.7 0.3 -0.9
v -0.7 0.5 -0.9
v -0.8 0.2 -0.4
v -0.8 0.5 -0.4
v -0.7 0.2 -0.4
v -0.7 0.3 -0.4
v -0.7 0.5 -0.4
v -0.8 0.1 -0.5
v -0.8 0.2 -0.5
v -0.8 0.5 -0.5
v -0.8 0.6 -0.5
v -0.7 0.1 -0.5
v -0.7 0.2 -0.5
v -0.7 0.5 -0.5
v -0.7 0.6 -0.5
v -0.8 0 -0.8
v -0.8 0.1 -0.8
v -0.8 0.6 -0.8
v -0.8 0.7 -0.8
v -0.6 0 -0.8
v -0.6 0.1 -0.8
v -0.6 0.6 -0.8
v -0.6 0.7 -0.8
v -0.3 0 -0.8
v -0.3 0.1 -0.8
v -0.3 0.2 -0.8
v -0.3 0.5 -0.8
v -0.3 0.6 -0.8
v -0.3 0.7 -0.8
v 0.5 0.1 -0.8
v 0.5 0.2 -0.8
v 0.5 0.5 -0.8
v 0.5 0.6 -0.8
v 0.6 0.2 -0.8
v 0.6 0.5 -0.8
v -0.8 0.1 -0.9
v -0.8 0.2 -0.9
v -0.8 0.5 -0.9
v -0.8 0.6 -0.9
v -0.6 0.1 -0.9
v -0.6 0.2 -0.9
v -0.6 0.5 -0.9
v -0.6 0.6 -0.9
v -0.3 0.1 -0.9
v -0.3 0.2 -0.9
v -0.3 0.5 -0.9
v -0.3 0.6 -0.9
v 0.5 0.2 -0.9
v 0.5 0.5 -0.9
v -0.8 0.2 -1
v -0.8 0.5 -1
v -0.6 0.2 -1
v -0.6 0.5 -1
v -0.3 0.2 -1
v -0.3 0.5 -1
v -0.8 0 -0.5
v -0.6 0 -0.5
v -0.3 0 -0.5
v -0.8 0 -0.8
v -0.6 0 -0.8
v -0.3 0 -0.8
v -0.8 0.1 -0.4
v -0.6 0.1 -0.4
v -0.3 0.1 -0.4
v -0.8 0.1 -0.5
v -0.6 0.1 -0.5
v -0.3 0.1 -0.5
v 0.5 0.1 -0.5
v -0.8 0.1 -0.8
v -0.6 0.1 -0.8
v -0.3 0.1 -0.8
v 0.5 0.1 -0.8
v -0.8 0.1 -0.9
v -0.6 0.1 -0.9
v -0.3 0.1 -0.9
v -0.8 0.2 -0.3
v -0.6 0.2 -0.3
v -0.3 0.2 -0.3
v -0.8 0.2 -0.4
v -0.6 0.2 -0.4
v -0.3 0.2 -0.4
v 0.5 0.2 -0.4
v -0.3 0.2 -0.5
v 0.5 0.2 -0.5
v 0.6 0.2 -0.5
v -0.3 0.2 -0.8
v 0.5 0.2 -0.8
v 0.6 0.2 -0.8
v -0.8 0.2 -0.9
v -0.6 0.2 -0.9
v -0.3 0.2 -0.9
v 0.5 0.2 -0.9
v -0.8 0.2 -1
v -0.6 0.2 -1
v -0.3 0.2 -1
v -0.8 0.5 -0.4
v -0.7 0.5 -0.4
v -0.8 0.5 -0.5
v -0.7 0.5 -0.5
v -0.8 0.5 -0.8
v -0.7 0.5 -0.8
v -0.8 0.5 -0.9
v -0.7 0.5 -0.9
v -0.8 0.6 -0.5
v -0.7 0.6 -0.5
v -0.7 0.6 -0.7
v -0.8 0.6 -0.8
v -0.7 0.6 -0.8
v -0.8 0.1 -0.5
v -0.7 0.1 -0.5
v -0.7 0.1 -0.7
v -0.8 0.1 -0.8
v -0.7 0.1 -0.8
v -0.8 0.2 -0.4
v -0.7 0.2 -0.4
v -0.8 0.2 -0.5
v -0.7 0.2 -0.5
v -0.8 0.2 -0.8
v -0.7 0.2 -0.8
v -0.8 0.2 -0.9
v -0.7 0.2 -0.9
v -0.8 0.5 -0.3
v -0.6 0.5 -0.3
v -0.3 0.5 -0.3
v -0.8 0.5 -0.4
v -0.6 0.5 -0.4
v -0.3 0.5 -0.4
v 0.5 0.5 -0.4
v -0.3 0.5 -0.5
v 0.5 0.5 -0.5
v 0.6 0.5 -0.5
v -0.3 0.5 -0.8
v 0.5 0.5 -0.8
v 0.6 0.5 -0.8
v -0.8 0.5 -0.9
v -0.6 0.5 -0.9
v -0.3 0.5 -0.9
v 0.5 0.5 -0.9
v -0.8 0.5 -1
v -0.6 0.5 -1
v -0.3 0.5 -1
v -0.8 0.6 -0.4
v -0.6 0.6 -0.4
v -0.3 0.6 -0.4
v -0.8 0.6 -0.5
v -0.6 0.6 -0.5
v -0.3 0.6 -0.5
v 0.5 0.6 -0.5
v -0.8 0.6 -0.8
v -0.6 0.6 -0.8
v -0.3 0.6 -0.8
v 0.5 0.6 -0.8
v -0.8 0.6 -0.9
v -0.6 0.6 -0.9
v -0.3 0.6 -0.9
v -0.8 0.7 -0.5
v -0.6 0.7 -0.5
v -0.3 0.7 -0.5
v -0.8 0.7 -0.8
v -0.6 0.7 -0.8
v -0.3 0.7 -0.8

# faces
f 4/1/1 2/1/1 1/1/1
f 5/1/1 2/1/1 4/1/1
f 8/1/1 4/1/1 3/1/1
f 9/1/1 4/1/1 8/1/1
f 10/1/1 6/1/1 5/1/1
f 11/1/1 6/1/1 10/1/1
f 13/1/1 8/1/1 7/1/1
f 14/1/1 8/1/1 13/1/1
f 17/1/1 12/1/1 11/1/1
f 18/1/1 12/1/1 17/1/1
f 19/1/1 15/1/1 14/1/1
f 20/1/1 15/1/1 19/1/1
f 21/1/1 17/1/1 16/1/1
f 22/1/1 17/1/1 21/1/1
f 23/1/1 21/1/1 20/1/1
f 24/1/1 21/1/1 23/1/1
f 29/6/1 26/6/1 25/6/1
f 30/6/1 26/6/1 29/6/1
f 31/7/1 27/7/1 26/7/1
f 31/6/1 26/6/1 30/6/1
f 32/7/1 27/7/1 31/7/1
f 34/5/1 30/5/1 29/5/1
f 34/5/1 29/5/1 28/5/1
f 35/5/1 30/5/1 34/5/1
f 36/6/1 32/6/1 31/6/1
f 36/5/1 30/5/1 35/5/1
f 36/6/1 31/6/1 30/6/1
f 37/6/1 32/6/1 36/6/1
f 38/7/1 33/7/1 32/7/1
f 38/6/1 32/6/1 37/6/1
f 39/7/1 33/7/1 38/7/1
f 40/5/1 37/5/1 36/5/1
f 40/4/1 35/4/1 34/4/1
f 40/5/1 36/5/1 35/5/1
f 41/5/1 37/5/1 40/5/1
f 42/6/1 39/6/1 38/6/1
f 42/5/1 37/5/1 41/5/1
f 42/6/1 38/6/1 37/6/1
f 43/6/1 39/6/1 42/6/1
f 44/4/1 41/4/1 40/4/1
f 44/4/1 40/4/1 34/4/1
f 45/4/1 41/4/1 44/4/1
f 46/5/1 43/5/1 42/5/1
f 46/4/1 41/4/1 45/4/1
f 46/5/1 42/5/1 41/5/1
f 47/5/1 43/5/1 46/5/1
f 48/6/1 39/6/1 43/6/1
f 48/5/1 43/5/1 47/5/1
f 49/6/1 39/6/1 48/6/1
f 50/4/1 47/4/1 46/4/1
f 50/4/1 46/4/1 45/4/1
f 51/5/1 48/5/1 47/5/1
f 51/4/1 47/4/1 50/4/1
f 52/5/1 48/5/1 51/5/1
f 53/3/2 54/3/2 56/3/2
f 56/3/2 54/3/2 57/3/2
f 55/3/2 56/3/2 60/3/2
f 60/3/2 56/3/2 61/3/2
f 57/3/2 58/3/2 62/3/2
f 62/3/2 58/3/2 63/3/2
f 59/3/2 60/3/2 65/3/2
f 65/3/2 60/3/2 66/3/2
f 63/3/2 64/3/2 69/3/2
f 69/3/2 64/3/2 70/3/2
f 66/3/2 67/3/2 71/3/2
f 71/3/2 67/3/2 72/3/2
f 68/3/2 69/3/2 73/3/2
f 73/3/2 69/3/2 74/3/2
f 72/3/2 73/3/2 75/3/2
f 75/3/2 73/3/2 76/3/2
f 77/3/2 78/3/2 80/3/2
f 80/3/2 78/3/2 81/3/2
f 79/3/2 80/3/2 83/3/2
f 83/3/2 80/3/2 84/3/2
f 81/3/2 82/3/2 85/3/2
f 85/3/2 82/3/2 86/3/2
f 84/3/2 85/3/2 87/3/2
f 87/3/2 85/3/2 88/3/2
f 89/3/2 90/3/2 91/3/2
f 91/3/2 90/3/2 92/3/2
f 89/3/2 91/3/2 93/3/2
f 91/2/2 92/2/2 93/2/2
f 92/3/2 90/3/2 94/3/2
f 93/2/2 92/2/2 94/2/2
f 89/3/2 93/3/2 95/3/2
f 93/3/2 94/3/2 95/3/2
f 94/3/2 90/3/2 96/3/2
f 95/3/2 94/3/2 96/3/2
f 99/1/3 98/1/3 97/1/3
f 100/1/3 98/1/3 99/1/3
f 101/3/3 100/3/3 99/3/3
f 102/3/3 100/3/3 101/3/3
f 107/1/3 104/1/3 103/1/3
f 108/1/3 104/1/3 107/1/3
f 109/1/3 106/1/3 105/1/3
f 110/1/3 106/1/3 109/1/3
f 111/3/3 108/3/3 107/3/3
f 112/3/3 108/3/3 111/3/3
f 113/3/3 110/3/3 109/3/3
f 114/3/3 110/3/3 113/3/3
f 115/3/3 113/3/3 112/3/3
f 116/3/3 113/3/3 115/3/3
f 121/1/3 118/1/3 117/1/3
f 122/1/3 118/1/3 121/1/3
f 123/1/3 120/1/3 119/1/3
f 124/1/3 120/1/3 123/1/3
f 125/3/3 122/3/3 121/3/3
f 126/3/3 122/3/3 125/3/3
f 129/3/3 124/3/3 123/3/3
f 130/3/3 124/3/3 129/3/3
f 131/3/3 127/3/3 126/3/3
f 132/3/3 127/3/3 131/3/3
f 133/3/3 129/3/3 128/3/3
f 134/3/3 129/3/3 133/3/3
f 135/3/3 133/3/3 132/3/3
f 136/3/3 133/3/3 135/3/3
f 141/1/3 138/1/3 137/1/3
f 142/1/3 138/1/3 141/1/3
f 143/1/3 140/1/3 139/1/3
f 144/1/3 140/1/3 143/1/3
f 147/1/3 146/1/3 145/1/3
f 148/1/3 146/1/3 147/1/3
f 149/1/3 146/1/3 148/1/3
f 150/1/4 151/1/4 152/1/4
f 152/1/4 151/1/4 153/1/4
f 153/1/4 151/1/4 154/1/4
f 155/1/4 156/1/4 159/1/4
f 159/1/4 156/1/4 160/1/4
f 157/1/4 158/1/4 161/1/4
f 161/1/4 158/1/4 162/1/4
f 163/1/4 164/1/4 167/1/4
f 167/1/4 164/1/4 168/1/4
f 165/1/4 166/1/4 169/1/4
f 169/1/4 166/1/4 170/1/4
f 167/3/4 168/3/4 171/3/4
f 171/3/4 168/3/4 172/3/4
f 169/3/4 170/3/4 175/3/4
f 175/3/4 170/3/4 176/3/4
f 172/3/4 173/3/4 177/3/4
f 177/3/4 173/3/4 178/3/4
f 174/3/4 175/3/4 179/3/4
f 179/3/4 175/3/4 180/3/4
f 178/3/4 179/3/4 181/3/4
f 181/3/4 179/3/4 182/3/4
f 183/1/4 184/1/4 187/1/4
f 187/1/4 184/1/4 188/1/4
f 185/1/4 186/1/4 189/1/4
f 189/1/4 186/1/4 190/1/4
f 187/3/4 188/3/4 191/3/4
f 191/3/4 188/3/4 192/3/4
f 189/3/4 190/3/4 193/3/4
f 193/3/4 190/3/4 194/3/4
f 192/3/4 193/3/4 195/3/4
f 195/3/4 193/3/4 196/3/4
f 197/1/4 198/1/4 199/1/4
f 199/1/4 198/1/4 200/1/4
f 199/3/4 200/3/4 201/3/4
f 201/3/4 200/3/4 202/3/4
f 206/1/5 204/1/5 203/1/5
f 207/3/5 205/3/5 204/3/5
f 207/1/5 204/1/5 206/1/5
f 208/3/5 205/3/5 207/3/5
f 212/1/5 210/1/5 209/1/5
f 213/3/5 211/3/5 210/3/5
f 213/1/5 210/1/5 212/1/5
f 214/3/5 211/3/5 213/3/5
f 218/3/5 215/3/5 214/3/5
f 219/3/5 215/3/5 218/3/5
f 220/1/5 217/1/5 216/1/5
f 221/3/5 218/3/5 217/3/5
f 221/1/5 217/1/5 220/1/5
f 222/3/5 218/3/5 221/3/5
f 226/1/5 224/1/5 223/1/5
f 227/3/5 225/3/5 224/3/5
f 227/1/5 224/1/5 226/1/5
f 228/3/5 225/3/5 227/3/5
f 230/3/5 229/3/5 228/3/5
f 231/3/5 229/3/5 230/3/5
f 234/3/5 232/3/5 231/3/5
f 235/3/5 232/3/5 234/3/5
f 238/3/5 234/3/5 233/3/5
f 239/3/5 234/3/5 238/3/5
f 240/1/5 237/1/5 236/1/5
f 241/3/5 238/3/5 237/3/5
f 241/1/5 237/1/5 240/1/5
f 242/3/5 238/3/5 241/3/5
f 245/1/5 244/1/5 243/1/5
f 246/1/5 244/1/5 245/1/5
f 249/1/5 248/1/5 247/1/5
f 250/1/5 248/1/5 249/1/5
f 253/1/5 252/1/5 251/1/5
f 254/1/5 253/1/5 251/1/5
f 255/1/5 253/1/5 254/1/5
f 256/1/6 257/1/6 258/1/6
f 256/1/6 258/1/6 259/1/6
f 259/1/6 258/1/6 260/1/6
f 261/1/6 262/1/6 263/1/6
f 263/1/6 262/1/6 264/1/6
f 265/1/6 266/1/6 267/1/6
f 267/1/6 266/1/6 268/1/6
f 269/1/6 270/1/6 272/1/6
f 270/3/6 271/3/6 273/3/6
f 272/1/6 270/1/6 273/1/6
f 273/3/6 271/3/6 274/3/6
f 274/3/6 275/3/6 276/3/6
f 276/3/6 275/3/6 277/3/6
f 277/3/6 278/3/6 280/3/6
f 280/3/6 278/3/6 281/3/6
f 279/3/6 280/3/6 284/3/6
f 284/3/6 280/3/6 285/3/6
f 282/1/6 283/1/6 286/1/6
f 283/3/6 284/3/6 287/3/6
f 286/1/6 283/1/6 287/1/6
f 287/3/6 284/3/6 288/3/6
f 289/1/6 290/1/6 292/1/6
f 290/3/6 291/3/6 293/3/6
f 292/1/6 290/1/6 293/1/6
f 293/3/6 291/3/6 294/3/6
f 294/3/6 295/3/6 298/3/6
f 298/3/6 295/3/6 299/3/6
f 296/1/6 297/1/6 300/1/6
f 297/3/6 298/3/6 301/3/6
f 300/1/6 297/1/6 301/1/6
f 301/3/6 298/3/6 302/3/6
f 303/1/6 304/1/6 306/1/6
f 304/3/6 305/3/6 307/3/6
f 306/1/6 304/1/6 307/1/6
f 307/3/6 305/3/6 308/3/6
